<?xml version="1.0" encoding="UTF-8" standalone="no"?>
<!-- Created with Inkscape (http://www.inkscape.org/) -->

<svg
   width="178.69547mm"
   height="179.74785mm"
   viewBox="0 0 178.69546 179.74785"
   version="1.1"
   id="svg1"
   xml:space="preserve"
   xmlns:inkscape="http://www.inkscape.org/namespaces/inkscape"
   xmlns:sodipodi="http://sodipodi.sourceforge.net/DTD/sodipodi-0.dtd"
   xmlns="http://www.w3.org/2000/svg"
   xmlns:svg="http://www.w3.org/2000/svg"><sodipodi:namedview
     id="namedview1"
     pagecolor="#ffffff"
     bordercolor="#000000"
     borderopacity="0.25"
     inkscape:showpageshadow="2"
     inkscape:pageopacity="0.0"
     inkscape:pagecheckerboard="0"
     inkscape:deskcolor="#d1d1d1"
     inkscape:document-units="mm"><inkscape:page
       x="1.158161e-11"
       y="6.8104463e-13"
       width="178.69547"
       height="179.74785"
       id="page3"
       margin="0"
       bleed="0" /></sodipodi:namedview><defs
     id="defs1" /><g
     id="g1"
     inkscape:groupmode="layer"
     inkscape:label="1"
     transform="matrix(0.26458333,0,0,0.26458334,-2.3822315e-4,7.566672e-5)"><path
       id="path1"
       d="M 38.699,503.184 C 34,501.52 30.441,499.176 26.809,495.082 20.836,488.57 18.711,484.516 17.727,477.434 17.188,473.961 15.719,468.328 14.5,464.848 l -2.23,-6.184 1.39,-10.863 c 0.93,-6.684 1.293,-13.067 1.102,-16.871 -0.25,-3.36 -0.192,-10.309 0.093,-15.489 0.286,-5.179 0.258,-11.461 -0.097,-14 -0.633,-5.074 -0.633,-20.421 0,-33.043 0.191,-4.437 0.25,-8.437 0.008,-8.921 -0.176,-0.403 -0.328,-5.11 -0.258,-10.391 0.082,-5.359 0.008,-10.664 -0.203,-11.977 -0.594,-3.629 0.507,-17.55 1.23,-16.097 0.731,1.379 0.676,0.617 -0.527,-10.653 -0.496,-4.375 -0.477,-11.027 -0.059,-16.644 0.766,-10.11 0.813,-13.43 0.192,-16.836 -0.231,-1.164 -0.371,-4.207 -0.258,-6.84 0.023,-2.566 -0.082,-7.039 -0.317,-9.945 -0.386,-4.055 -0.004,-7.637 1.293,-14.805 1.438,-7.68 1.547,-9.707 0.836,-11.234 -1.433,-2.981 -1.945,-6.676 -1.894,-13.551 0,-3.555 -0.285,-7.219 -0.629,-8.094 -0.738,-1.91 -0.469,-13.445 0.512,-23.453 0.488,-4.398 0.441,-7.578 -0.122,-9.086 -0.507,-1.351 -0.906,-5.336 -0.988,-8.824 0.004,-7.106 -1.09,-14.504 -2.058,-14.629 -0.891,-0.113 -0.094,-5.156 0.91,-5.328 0.539,-0.082 0.683,-1.199 0.457,-3.57 -0.207,-1.918 -0.192,-4.411 -0.028,-5.676 0.348,-2.149 0.348,-2.149 0.715,-0.285 0.164,1.078 0.426,1.414 0.575,0.828 0.386,-1.84 -0.329,-14.559 -0.985,-18.274 -0.953,-5.566 -0.875,-9.715 0.242,-19.023 0.891,-7.524 0.848,-8.965 -0.254,-10.996 -0.675,-1.219 -1.863,-4.926 -2.515,-8.11 -1.156,-5.136 -1.168,-6.804 -0.164,-13.48 0.883,-5.707 1.004,-7.813 0.316,-8.352 -0.762,-0.55 -0.547,-3.398 0.82,-12.902 C 13.676,36.848 13.445,33.945 9.695,27.188 8.215,24.578 6.191,20.918 5.211,19.129 4.23,17.34 3.242,15.02 3.078,13.941 2.914,12.859 2.016,11.008 1.117,9.758 0.219,8.508 -0.223,7.242 0.113,6.98 0.457,6.648 7.496,7.172 15.785,8.008 28.543,9.34 31.184,9.375 32.965,8.469 34.09,7.934 37.285,7.207 39.957,7.02 c 2.68,-0.262 6.996,-0.918 9.481,-1.43 2.57,-0.578 5.335,-0.906 6.226,-0.793 0.82,0.105 1.898,-0.059 2.316,-0.383 1.84,-1.352 10.286,-1.781 17.653,-0.84 4.164,0.535 9.113,0.867 10.871,0.715 10.18,-0.965 15.492,-1.117 22.246,-0.707 4.129,0.227 7.906,0.258 8.316,0.008 1.219,-0.676 5.688,-0.707 18.539,-0.121 6.391,0.289 12.047,0.41 12.457,0.16 0.969,-0.481 7.809,-0.738 16.727,-0.731 3.777,0.032 9.438,-0.453 12.695,-1.097 3.246,-0.567 7.071,-0.906 8.559,-0.715 1.488,0.187 2.941,0.074 3.219,-0.344 0.355,-0.41 4.785,-0.144 10.734,0.617 6.176,0.793 12.332,1.125 15.543,0.856 2.977,-0.223 7.508,-0.172 10.188,0.172 7.066,0.906 21.168,1.199 22.918,0.515 0.875,-0.34 8.476,-0.047 16.929,0.657 11.067,0.964 15.672,1.027 16.649,0.472 1.504,-1.093 9.019,-1.34 19.371,-0.695 4.351,0.254 8,0.117 8.746,-0.395 1.722,-1.062 14.012,-0.773 25.469,0.696 7.289,0.933 9.847,1.031 10.621,0.301 0.515,-0.465 2.238,-0.922 3.836,-1.02 1.519,-0.035 4.636,-0.77 6.789,-1.629 4.933,-1.937 9.234,-1.84 39.148,1.313 18.434,1.906 21.985,2.511 23.731,3.644 2.785,1.867 7.175,1.824 9.543,-0.141 2.371,-1.964 3.785,-1.781 7.394,0.723 2.496,1.758 3.965,2.094 13.051,3.184 5.582,0.715 10.609,1.586 11.094,1.949 0.675,0.617 0.304,1.176 -1.684,2.508 -1.398,0.879 -3,1.582 -3.445,1.523 -0.446,-0.054 -1.657,0.543 -2.739,1.313 -1.586,1.16 -3.281,1.394 -8.238,1.136 -3.387,-0.129 -7.414,0.036 -8.914,0.524 -1.496,0.488 -5.516,0.578 -9.254,0.25 -5.992,-0.465 -6.762,-0.336 -9.105,1.406 l -2.508,1.871 -35.484,-4.547 -35.485,-4.543 -4.367,1.633 c -2.395,0.977 -5.207,2.281 -6.281,2.977 -1.489,1.015 -3.399,1.152 -9.621,0.73 -7.95,-0.488 -8.797,-0.371 -11.621,1.613 -3.645,2.481 -10.563,3.336 -20.735,2.485 -7.945,-0.563 -10.371,-0.496 -13.223,0.5 -1.972,0.652 -4.078,1.14 -4.746,1.055 -1.265,-0.161 -4.843,2.402 -4.988,3.519 -0.219,1.711 3.293,6.774 5.676,8.215 2.312,1.43 4.898,1.91 21.59,3.824 16.777,1.844 19.476,2.039 23.597,1.133 3.11,-0.664 7.735,-0.75 14.032,-0.32 5.172,0.359 9.773,0.418 10.183,0.168 0.821,-0.5 5.129,-0.477 15.946,0.078 6.093,0.25 6.093,0.25 6.367,2.25 0.367,3.601 -1.231,6.648 -5.203,9.922 -2.184,1.687 -4.539,2.972 -5.434,2.855 -0.891,-0.113 -3.305,0.41 -5.512,1.109 -3.715,1.266 -4.699,1.29 -21.031,-0.5 -14.691,-1.582 -17.769,-1.746 -21.281,-0.91 -2.262,0.539 -4.309,1.184 -4.645,1.446 -0.254,0.195 -2.812,0.093 -5.488,-0.25 -5.207,-0.668 -11.016,0.402 -13.254,2.535 -0.598,0.531 -2.703,1.621 -4.687,2.351 -1.985,0.727 -6.664,3.606 -10.282,6.469 -6.64,5.199 -6.648,5.273 -5.976,7.703 0.359,1.332 1.226,2.805 1.926,3.27 0.687,0.543 8.16,1.804 16.714,2.898 12.434,1.52 15.813,1.723 17.032,1.047 0.894,-0.488 2.523,-0.809 3.64,-0.668 1.114,0.145 2.352,-0.074 2.625,-0.418 0.27,-0.344 2.25,-0.469 4.258,-0.211 2.086,0.266 4.754,0.078 6.024,-0.363 1.738,-0.609 7.089,-0.453 20.492,0.586 15.707,1.328 18.422,1.375 20.136,0.387 1.243,-0.825 3.157,-1.036 5.465,-0.739 l 3.571,0.457 2.98,7.414 c 2.938,7.184 2.91,7.407 2.008,12.657 -0.52,2.882 -0.637,4.984 -0.356,4.57 1.438,-1.785 1.121,3.621 -1.55,25.66 -1.133,8.852 -3.875,20.219 -5.18,21.566 -0.43,0.399 -1.383,1.938 -2.023,3.372 -1.243,2.636 -1.188,2.796 0.96,5.488 3.145,3.808 3.153,6.68 0.286,16.672 -4.446,15.234 -4.536,16.508 -1.289,23.051 1.976,4.031 1.382,6.906 -1.965,9.425 -2.508,1.871 -3.207,2.008 -7.297,1.485 -5.43,-0.696 -5.254,-0.297 -4.399,-12.286 0.348,-4.492 0.262,-10.324 -0.168,-12.874 -1.128,-7.102 -1.316,-13.325 -0.562,-19.204 0.617,-4.832 0.937,-5.55 3.148,-7.457 l 2.461,-2.105 -1.867,-3.719 c -1.691,-3.316 -1.887,-4.172 -1.226,-9.305 0.55,-4.316 0.472,-6.066 -0.352,-7.304 -0.648,-0.84 -1.625,-3.235 -2.195,-5.274 -1.383,-4.562 -0.602,-7.105 2.668,-9.636 2.332,-1.668 2.425,-1.809 1.504,-4.043 -1,-2.246 -0.907,-2.383 1.238,-3.774 2.226,-1.453 4.472,-6.004 2.984,-6.195 -0.445,-0.055 -0.73,-0.774 -0.625,-1.594 0.16,-1.262 -0.332,-1.555 -3.008,-1.894 -2.457,-0.317 -3.703,-0.024 -5.222,1.218 -2.789,2.289 -5.746,1.762 -7.543,-1.343 -1.961,-3.579 -5.699,-3.907 -9.571,-0.848 -2.359,1.891 -3.382,2.215 -5.984,1.879 -1.785,-0.227 -3.387,-0.129 -3.648,0.14 -0.27,0.34 -4.801,0.29 -10.188,-0.171 -11.066,-0.965 -12.164,-0.653 -21.402,5.953 -5.082,3.66 -5.406,3.843 -9.985,3.558 -2.546,-0.172 -5.152,0.098 -5.742,0.551 -0.754,0.586 -1.511,4.723 -2.808,15.445 -1.524,11.903 -1.731,15.278 -1.032,18.09 0.442,1.871 0.598,5.367 0.282,7.824 -0.848,6.622 -0.102,17.907 1.535,21.672 1.152,2.793 1.242,4.469 0.57,10.883 -0.582,5.145 -0.523,7.645 0.117,7.957 1.047,0.66 0.598,4.762 -0.613,5.363 -0.477,0.168 -1.547,1.465 -2.324,2.805 -1.281,2.328 -1.321,2.629 -0.098,4.297 1.742,2.34 2.227,5.047 2.211,10.488 -0.051,3.926 0.363,5.418 3.074,10.227 3.137,5.617 4.571,8.598 6.461,13.301 0.817,1.922 1.094,2.109 1.235,0.992 0.144,-1.117 0.379,-1.164 0.961,-0.406 0.453,0.586 1.449,1.093 2.191,1.187 0.894,0.113 1.219,0.535 0.918,1.102 -0.395,0.703 0.023,0.984 1.476,0.867 1.973,-0.047 9.907,-5.309 10.079,-6.649 0.046,-0.371 -0.649,-1.441 -1.586,-2.394 -1.41,-1.391 -1.594,-2.32 -1.164,-5.668 0.277,-2.156 1.179,-5.066 1.957,-6.402 1.363,-2.399 1.355,-2.93 0.437,-6.977 -0.754,-2.973 -0.828,-5.324 -0.273,-7.297 0.429,-1.605 0.59,-5.215 0.347,-8.043 -0.175,-2.746 -0.183,-6.828 0.086,-8.914 0.492,-3.867 -0.754,-7.125 -2.91,-7.402 -1.562,-0.199 -2.215,-5.125 -1.07,-8.153 0.597,-1.738 1.226,-6.648 1.535,-13.187 0.344,-5.625 0.75,-10.567 1.012,-10.836 0.187,-0.277 -0.039,-2.047 -0.629,-3.934 -0.516,-1.882 -1.067,-5.281 -1.141,-7.632 -0.066,-2.43 -0.234,-5.247 -0.398,-6.329 -0.239,-1.691 0.218,-2.316 2.504,-3.609 2.113,-1.168 3.964,-1.457 8.699,-1.23 3.621,0.086 6.523,-0.149 7.351,-0.723 0.914,-0.637 2.442,-0.746 4.207,-0.367 2.5,0.547 2.844,0.816 3.059,3.265 0.172,1.61 1.32,3.875 2.906,5.664 1.985,2.219 3.082,4.856 4.473,9.95 1.781,6.73 1.809,7.113 0.562,16.254 -2.027,14.636 -2.914,25.71 -2.281,27.836 0.313,1.097 0.649,1.441 0.797,0.859 0.125,-0.969 0.199,-0.961 0.746,0.094 0.778,1.613 0.235,5.851 -0.812,6.324 -1.2,0.523 -1.52,4.793 -0.723,8.601 1.055,4.746 0.453,7.696 -2.078,10.321 -2.969,3.097 -3.258,6.539 -1.133,11.801 l 1.734,4.156 9.45,1.207 c 7.214,0.926 9.699,1.015 10.781,0.25 0.746,-0.512 3.285,-0.867 5.629,-0.867 3.472,0.066 4.867,0.394 6.668,1.683 2.004,1.469 2.82,1.571 5.808,1.274 1.926,-0.282 6.215,-0.11 9.563,0.32 3.348,0.426 6.742,0.484 7.617,0.141 0.875,-0.34 5.258,-0.309 9.75,0.039 l 8.164,0.593 -0.281,3.973 c -0.164,2.473 0.082,4.094 0.656,4.316 0.512,0.141 0.598,0.079 0.18,-0.203 -1.051,-0.664 -0.242,-5.777 0.879,-5.105 0.418,0.281 1.402,0.863 2.117,1.18 0.633,0.382 1.172,0.906 1.121,1.277 -0.188,1.488 1.797,0.758 5.625,-2 2.996,-2.113 4.598,-2.817 6.309,-2.594 2.898,0.371 5.816,-1.148 14.265,-7.476 6.692,-5.04 6.785,-5.176 5.621,-6.688 -1.363,-1.762 -1.515,-3.523 -0.125,-2.586 0.41,0.352 -0.175,-0.402 -1.297,-1.68 -1.207,-1.214 -2.148,-2.695 -2.093,-3.14 0.066,-0.524 1.328,-2.098 2.718,-3.508 1.829,-1.883 2.719,-3.508 2.977,-5.52 0.199,-1.562 1.297,-4.824 2.516,-7.238 1.964,-4.133 2.023,-4.578 1.343,-8.144 -0.41,-2.094 -0.402,-4.512 0.036,-5.59 1.433,-3.524 1.878,-8.758 0.933,-10.238 -0.629,-0.989 -0.789,-3.278 -0.379,-6.477 0.278,-2.762 0.289,-6.996 0.067,-9.367 -0.473,-3.992 -0.293,-4.801 1.234,-7.86 2.113,-4.113 1.996,-4.961 -1.195,-7.789 -1.356,-1.23 -2.633,-3.058 -2.883,-4.074 -0.641,-2.652 0.726,-12.156 1.695,-12.031 0.445,0.055 2.297,-0.84 4.192,-2.035 4.511,-2.75 7.601,-3.262 14.07,-2.43 6.176,0.789 6.113,0.707 5.969,7.719 -0.082,2.41 0.191,4.41 0.488,4.449 1.191,0.152 -0.133,6.937 -1.578,8.191 -1.184,0.981 -1.094,1.446 0.57,4.989 2.477,5.457 2.75,8.062 1.473,18.031 -1.106,8.629 -1.125,8.777 1.121,16.023 l 2.238,7.321 -1.519,13.035 c -0.766,7.16 -1.5,13.496 -1.579,14.09 -0.066,1.125 6.653,9.472 14.293,17.707 4.45,4.804 5.145,5.273 8.418,5.691 3.2,0.41 3.907,0.199 6.286,-1.84 2.64,-2.308 4.113,-6.73 2.675,-7.898 -0.953,-0.805 -2.078,-7.981 -1.687,-11.031 0.297,-2.305 0.754,-2.926 2.484,-3.461 1.184,-0.379 3.399,-0.547 4.961,-0.348 l 2.828,0.363 -0.597,5.821 c -0.325,3.132 -0.875,7.449 -1.301,9.586 -0.52,2.882 -0.367,4.644 0.766,7.585 0.906,2.383 1.316,5.082 1.078,6.942 -0.211,1.637 -0.055,5.742 0.351,9.043 0.41,3.305 0.481,8.078 0.156,10.605 -0.324,2.532 -0.523,6.438 -0.343,8.578 0.238,4.641 -0.559,12.633 -2.063,20.227 -0.812,3.98 -0.84,4.809 -0.156,3.004 0.898,-2.305 0.953,-2.145 0.227,1.164 -0.868,4.426 -0.29,12.891 1.148,17.008 0.555,1.582 1.027,4.972 0.937,7.457 -0.125,6.863 0.375,13.582 1.09,14.504 0.379,0.578 0.559,-0.231 0.508,-2.203 -0.094,-2.204 0.047,-2.715 0.461,-1.832 0.906,1.781 0.273,5.554 -1.582,9.402 -1.133,2.348 -1.762,4.914 -1.988,8.441 -0.258,5.559 -1.453,7.223 -4.653,6.813 -1.859,-0.238 -1.871,-0.164 -1.101,-7.324 0.629,-6.121 0.058,-11.11 -1.641,-14.352 l -1.222,-2.273 -18.153,-2.325 c -10.043,-1.285 -18.93,-2.726 -19.914,-3.308 -1.07,-0.516 -2.105,-1.856 -2.496,-2.965 -0.844,-2.832 2.016,-5.109 6.715,-5.188 1.973,-0.05 4.551,-0.703 5.875,-1.593 1.324,-0.887 3.281,-1.395 4.617,-1.223 5.805,0.742 17.094,-4.766 20.406,-9.937 1.801,-2.868 3.078,-12.235 2.168,-16.356 -0.308,-1.703 -0.605,-5.297 -0.57,-7.937 0.121,-2.707 -0.324,-6.317 -0.934,-8.059 -0.921,-2.84 -1.867,-3.719 -8.562,-8.129 -7.047,-4.609 -7.762,-4.926 -13.117,-5.613 -4.762,-0.61 -5.907,-0.531 -7.266,0.656 -0.852,0.723 -3.504,1.973 -5.953,2.793 l -4.352,1.484 -27.671,-3.546 -27.676,-3.543 -2.348,1.816 c -2.078,1.473 -3.086,1.644 -6.508,1.207 -3.199,-0.41 -4.734,-0.23 -6.859,1.012 -1.547,0.859 -3.512,1.441 -4.402,1.324 -2.083,-0.266 -3.657,2.558 -3.911,6.91 -0.187,3.832 1.504,6.543 6.164,9.711 2.852,1.953 4.313,2.367 11.157,3.246 l 7.808,1 -0.285,2.231 c -0.211,1.636 -1.301,3.086 -3.766,5.191 -3.3,2.75 -3.773,2.918 -7.347,2.461 -3.422,-0.442 -4.36,-0.184 -9.094,2.539 -7.094,4.004 -8.379,5.203 -8.406,7.769 -0.082,2.411 2.996,5.524 7.16,7.27 1.437,0.563 8.832,1.887 16.418,2.859 l 13.836,1.774 3.473,-2.883 c 4.234,-3.543 4.964,-5.719 5.882,-16.414 l 0.571,-8.016 2.675,-2 c 1.504,-1.093 2.977,-1.964 3.348,-1.918 0.371,0.051 1.508,-0.562 2.508,-1.265 1.75,-1.289 2.961,-1.285 14.984,-0.121 l 13.141,1.304 -0.219,1.711 c -0.351,2.754 -6.129,8.895 -15.726,16.512 -8.168,6.516 -9.129,7.527 -10.496,11.129 -2.075,5.558 -2.532,6.18 -9.266,11.519 l -5.969,4.68 -6.769,-0.867 c -5.282,-0.68 -7.254,-0.629 -9.18,0.258 -1.606,0.703 -4.738,0.98 -9.027,0.812 -5.043,-0.195 -7.192,0.059 -9.371,1.141 -1.54,0.789 -3.055,1.426 -3.43,1.375 -1.262,-0.16 -4.942,3.754 -5.692,6.078 -0.546,1.895 -0.582,2.191 0.079,1.145 0.863,-1.403 0.937,-1.395 0.734,0.167 -0.039,0.903 -0.906,2.379 -1.945,3.383 -1.391,1.41 -1.942,2.774 -2.344,6.504 -0.496,3.867 -0.27,5.637 1.402,10.313 1.735,4.758 2.426,5.828 4.832,7.121 1.551,0.879 3.567,1.668 4.535,1.789 0.895,0.117 3.559,1.137 5.899,2.344 2.277,1.125 7.324,3.054 11.105,4.222 6.246,2.008 6.887,2.317 6.899,3.981 0.015,1.062 -0.676,2.336 -1.86,3.316 -1.773,1.438 -2.461,1.5 -8.711,0.699 -5.726,-0.734 -7.242,-0.699 -8.894,0.375 -1.145,0.684 -3.66,1.418 -5.66,1.692 -5.77,0.773 -7.199,2.48 -7.992,9.261 -0.954,8.043 -0.75,11.774 1.011,19.258 0.824,3.586 2.137,9.879 2.981,13.918 1.851,9.16 4.801,18.61 7.535,24.407 1.203,2.421 2.984,6.203 3.984,8.449 3.391,7.164 13.063,14.906 19.684,15.754 1.113,0.14 2.781,-0.477 3.957,-1.383 1.937,-1.567 1.976,-1.867 1.824,-6.574 -0.113,-2.661 -0.754,-5.918 -1.355,-7.129 -0.676,-1.219 -1.551,-3.828 -2.067,-5.707 -0.504,-1.957 -1.324,-4.407 -1.937,-5.543 -0.61,-1.137 -1.2,-3.028 -1.289,-4.098 -0.243,-2.223 -4.403,-11.074 -6.7,-14.391 -2.175,-3.078 -2.585,-5.777 -2.035,-13.644 0.606,-8.242 1.641,-9.848 5.883,-9.305 1.336,0.172 2.715,0.047 2.996,-0.371 0.27,-0.344 1.211,-0.601 1.953,-0.508 3.051,0.391 16.789,-11.23 14.59,-12.343 -1.004,-0.434 -0.293,-7.75 0.746,-7.618 2.086,0.266 4.395,-10.097 2.559,-11.695 -0.418,-0.281 -0.738,-1.91 -0.828,-3.586 -0.075,-2.351 0.054,-2.789 0.609,-1.812 0.559,0.98 0.641,0.914 0.348,-0.332 -0.192,-0.856 -0.133,-5.461 0.019,-10.204 l 0.356,-8.652 2.972,-1.961 c 2.891,-1.898 6.817,-2.457 12.993,-1.664 2.453,0.313 2.402,1.895 -0.27,8.586 -2.336,5.824 -3.297,16.891 -1.875,22.895 0.531,2.339 1.117,6.043 1.371,8.191 0.168,2.215 0.981,4.738 1.77,5.672 1.703,2.031 7.343,4.039 16.781,5.93 3.68,0.773 7.035,1.734 7.519,2.097 0.399,0.43 0.672,1.824 0.512,3.09 -0.246,1.934 -1.152,3.106 -4.332,5.496 l -4.019,3.039 -11.977,-1.535 -12.051,-1.543 -2.816,1.906 c -2.395,1.582 -2.965,2.493 -3.777,5.868 -0.5,2.128 -1.532,4.871 -2.27,5.91 -0.746,1.113 -1.711,3.336 -2.145,4.941 -0.648,2.109 -0.632,2.567 0.032,1.516 0.656,-0.973 0.566,0.906 -0.25,6.093 -0.782,5.497 -0.836,8.286 -0.219,10.559 0.469,1.649 1.215,4.691 1.637,6.711 0.898,4.199 5.125,9.578 10.914,13.949 6.211,4.653 7.761,8.481 6.715,16.664 -0.43,3.348 -0.926,4.27 -3.231,6.317 -5.457,4.82 -7.242,5.195 -19.277,4.109 -10.242,-0.934 -14.883,-0.695 -17.606,1.07 -0.652,0.371 -4.14,0.453 -7.879,0.125 -3.972,-0.281 -7.843,-0.172 -9.488,0.297 -3.16,1.031 -23.129,-0.09 -39.269,-2.156 -9.598,-1.23 -9.981,-1.203 -11.918,0.363 -1.102,0.918 -2.547,1.563 -3.141,1.489 -0.668,-0.086 -1.926,0.281 -2.746,0.781 -0.895,0.492 -3.195,0.726 -5.055,0.488 -1.859,-0.238 -3.758,-0.18 -4.176,0.145 -0.496,0.316 -5.46,0.132 -11.058,-0.434 -9.106,-0.937 -10.391,-0.953 -12.133,0.262 -1.668,1.222 -3.109,1.265 -11.641,0.551 -11.597,-0.958 -21.363,-0.848 -23.183,0.355 -0.66,0.445 -2.504,0.664 -4.067,0.461 -1.484,-0.188 -3.859,0.035 -5.136,0.555 -2.055,0.718 -4.754,0.523 -17.5,-1.489 -14.246,-2.125 -15.141,-2.242 -16.586,-0.988 -1.278,1.121 -2.489,1.117 -13.125,-0.246 -11.903,-1.523 -19.68,-1.613 -21.899,-0.234 -0.66,0.445 -2.59,1.332 -4.265,2.023 -2.953,1.211 -3.856,1.172 -27,-1.719 -13.168,-1.687 -29.051,-3.418 -35.328,-3.996 -10.332,-0.793 -11.543,-0.797 -13.305,0.563 -1.828,1.281 -2.738,1.312 -10.996,0.257 -8.11,-1.039 -9.172,-1.023 -11.297,0.215 -1.238,0.825 -4.254,1.95 -6.676,2.547 -3.844,1.098 -5.5,1.035 -15.832,-0.363 -6.312,-0.887 -12.82,-2.02 -14.422,-2.527 z m 28.496,-9.961 c 0.356,-0.411 4.86,-0.133 11.18,0.675 5.805,0.743 10.902,1.094 11.395,0.778 2.015,-1.555 9.542,-1.875 17.574,-0.848 4.613,0.59 9.043,0.856 9.832,0.578 1.508,-0.562 9.242,-1.308 17.375,-1.629 2.965,-0.148 6.437,-0.687 7.703,-1.129 1.91,-0.738 7.601,-0.312 29.996,1.95 20.598,2.109 27.938,2.672 28.852,2.035 1.238,-0.824 2.679,-0.867 15.117,-0.559 6.941,0.133 7.097,0.078 10.781,-2.703 3.59,-2.641 3.703,-2.93 3.742,-6.176 -0.031,-2.121 0.684,-5.355 1.848,-8.535 1.133,-2.953 1.832,-6.039 1.687,-7.269 l -0.254,-2.149 -11.746,-0.976 c -6.437,-0.52 -12.082,-0.715 -12.511,-0.317 -0.493,0.317 -1.352,0.508 -1.946,0.434 -0.668,-0.086 -2.222,0.242 -3.492,0.683 -1.664,0.622 -4.976,0.5 -13.902,-0.644 -8.856,-1.137 -12.164,-1.258 -13.906,-0.649 -1.192,0.454 -3.79,0.649 -5.723,0.403 -1.934,-0.25 -3.918,-0.125 -4.336,0.199 -0.504,0.391 -4.738,0.379 -9.441,-0.074 -12.426,-0.989 -22.332,-0.973 -23.454,0.094 -0.773,0.734 -3.406,0.625 -10.996,-0.348 -9.519,-1.219 -10.125,-1.223 -12.66,0.269 -2.207,1.305 -3.512,1.438 -7.601,0.914 -4.539,-0.582 -9.899,-0.058 -14.008,1.309 -1.031,0.395 -6.047,-0.019 -12.86,-1.121 -13.429,-2.023 -14.199,-2.5 -13.906,-9.492 0.235,-4.203 0.235,-4.203 2.317,-3.938 1.117,0.141 2.839,-0.316 3.753,-0.957 0.997,-0.703 4.415,-1.398 7.774,-1.648 3.359,-0.254 6.773,-0.949 7.687,-1.586 1.332,-0.965 3.817,-0.875 17.403,0.488 16.191,1.695 17.105,1.66 25.234,-1 3.938,-1.238 10.711,-1.578 21.594,-0.941 3.683,0.172 7.051,-0.156 9.574,-0.965 3.156,-1.031 6.125,-1.184 14.609,-0.699 10.372,0.496 11.739,0.445 15.024,-0.422 0.867,-0.266 7.469,0.125 14.629,0.894 12.465,1.293 13.215,1.313 16.812,-0.191 2.067,-0.793 4.414,-1.402 5.231,-1.297 0.82,0.106 1.676,-0.086 1.945,-0.43 0.274,-0.343 1.68,-0.695 3.047,-0.746 2.969,-0.148 7.227,-3.308 9.285,-6.976 0.965,-1.614 1.828,-4.832 2.285,-8.403 0.821,-6.398 0.805,-19.859 0.028,-23.211 -0.305,-1.171 -0.477,-2.781 -0.364,-3.675 0.106,-0.817 -0.187,-2.668 -0.675,-4.168 -1.039,-3.082 -0.411,-5.043 2.593,-8.438 l 2.129,-2.449 -2.699,-2.539 c -2.516,-2.215 -3.527,-2.57 -10.047,-3.633 -6.582,-1.144 -7.652,-1.055 -11.59,0.18 -3.472,1.144 -5.457,1.265 -10.14,0.668 -3.2,-0.41 -7.731,-0.461 -10.047,-0.078 -2.309,0.308 -6.274,0.558 -8.758,0.464 -2.703,-0.117 -5.172,0.247 -6.168,0.95 -0.906,0.566 -3.168,1.105 -5.066,1.168 -1.825,0.066 -3.907,0.406 -4.571,0.847 -0.746,0.512 -5.933,0.301 -15.047,-0.566 -12.929,-1.199 -18.156,-1.113 -20.265,0.582 -0.336,0.258 -4.903,-0.098 -10.11,-0.766 -7.363,-0.945 -10.527,-1.047 -14.398,-0.332 -4.02,0.696 -7.035,0.61 -16.855,-0.648 -9.747,-1.246 -12.227,-1.34 -13.086,-0.543 -0.598,0.531 -1.485,0.945 -1.93,0.887 -0.453,0.019 -2.242,0.394 -3.984,1.003 -2.532,0.883 -4.793,0.821 -11.797,0 -8.407,-1.078 -13.727,-0.851 -19.399,0.918 -3.472,1.145 -4.527,2.293 -3.976,4.481 0.929,3.977 3.312,6.019 9.781,8.664 5.816,2.406 7.211,2.738 17.32,3.504 15.856,1.351 24.18,1.281 26.344,-0.254 1.492,-1.02 2.703,-1.016 7.965,-0.191 l 6.144,1.015 0.371,4.207 c 0.329,4.5 1.129,7.703 2.754,10.938 0.539,1.129 1.043,3.082 1.188,4.312 0.191,2.063 -0.27,2.688 -3.774,5.262 -3.504,2.574 -4.55,3.047 -8.168,2.961 -5.367,-0.008 -9.695,0.723 -10.898,1.855 -0.766,0.657 -5.258,0.309 -21.547,-1.777 l -20.609,-2.641 -5.977,4.754 c -3.273,2.532 -6.351,5.313 -6.902,6.075 -1.598,2.441 -4.895,21.074 -5.946,33.414 -0.085,0.668 4.051,5.586 10.504,12.461 0.872,0.867 3.145,2.593 5.106,3.828 3.082,1.906 4.68,2.414 11.523,3.293 4.539,0.582 8.149,0.738 8.5,0.332 z m 278.379,-7.438 c 2.696,-2.152 4.774,-4.23 4.664,-4.547 -0.367,-1.254 -4.496,-8.59 -6.172,-10.843 l -1.656,-2.407 -13.019,-1.668 c -7.215,-0.925 -13.586,-1.968 -14.227,-2.277 -0.559,-0.371 -1.457,-1.621 -1.906,-2.813 -0.731,-1.984 -0.617,-2.273 1.461,-3.746 2.172,-1.613 2.703,-1.621 15.332,-0.457 l 13.086,1.149 3.933,-2.973 c 6.278,-4.719 6.446,-5.453 5.981,-23.66 -0.102,-2.734 0.281,-9.262 0.742,-14.648 0.453,-5.309 0.895,-9.942 0.934,-10.239 -0.016,-1.062 -8.926,-1.75 -11.227,-0.91 -1.266,0.445 -5.758,3.649 -9.992,7.188 -6.196,5.257 -8.031,7.214 -9.754,10.625 -3.492,7.187 -8.234,9.379 -9.977,4.695 -1.496,-4.277 -1.55,-10.938 -0.097,-14.004 1.047,-2.285 1.218,-3.621 0.816,-8.137 l -0.449,-5.347 2.805,-1.836 c 1.574,-1.082 3.558,-1.813 4.527,-1.688 0.965,0.125 2.715,0.047 3.953,-0.176 1.238,-0.218 4.152,-0.527 6.449,-0.761 4.672,-0.457 6.449,-1.364 13.844,-6.543 6.227,-4.344 7.965,-6.692 7.203,-9.586 -1.023,-3.836 -1.277,-14.231 -0.629,-22.84 0.375,-4.715 0.496,-9.77 0.211,-11.09 -0.367,-2.465 -0.504,-2.558 -4.375,-3.055 -2.973,-0.382 -5.133,-0.054 -8.617,1.164 l -4.523,1.688 -15.774,-2.02 c -11.754,-1.503 -16.625,-1.828 -19.484,-1.363 -2.086,0.34 -5.352,0.449 -7.211,0.211 -1.934,-0.246 -4.531,-0.051 -5.723,0.402 -1.265,0.442 -3.043,0.747 -3.937,0.629 -0.891,-0.113 -2.707,0.485 -4.032,1.375 -1.398,0.879 -3.363,1.461 -4.476,1.317 -1.192,-0.153 -3.418,0.695 -5.625,2 -6.656,4.14 -4.863,7.847 5.277,10.734 5.977,1.75 11.863,2.426 44.758,5.356 l 11.738,1.05 -0.363,2.825 c -0.297,2.308 -1.035,3.347 -3.898,5.629 -3.188,2.464 -3.907,2.75 -7.028,2.347 -5.137,-0.656 -11.406,-0.097 -13.691,1.195 -1.219,0.676 -4.067,1.067 -6.934,1.004 -2.715,-0.046 -5.609,0.114 -6.472,0.379 -1.883,0.516 -12.266,0.699 -15.836,0.242 -1.34,-0.171 -3.434,0.239 -4.579,0.926 -1.148,0.684 -2.718,1.164 -3.539,1.059 -0.742,-0.098 -2.093,0.41 -3.027,1.199 -1.437,1.176 -1.484,1.551 -0.734,3.383 0.461,1.117 1.75,2.871 2.75,3.906 1.754,1.664 3.148,1.992 13.609,3.559 11.492,1.773 11.789,1.812 12.461,3.636 0.453,1.196 0.375,3 -0.07,4.68 -1.86,6.266 -2.493,9.438 -1.5,7.598 0.597,-1.133 0.461,0.511 -0.399,4.863 -1.82,8.914 -1.773,7.938 -1.351,16.461 0.371,6.551 0.925,11.082 2.953,22.988 0.621,3.407 -0.125,7.469 -1.703,9.157 -1.586,1.761 -3.985,1.605 -9.067,-0.633 -3,-1.367 -3.742,-2.067 -4.176,-4.012 -0.265,-1.473 0.329,-9.031 1.602,-19 1.176,-9.152 2.168,-18.098 2.102,-19.922 -0.18,-5.691 -0.45,-5.953 -6.621,-6.746 l -5.508,-0.703 -6.199,4.121 c -5.536,3.676 -6.321,4.48 -7.075,7.41 -1.633,5.688 1.551,28.629 4.742,34.406 0.797,1.465 1.942,3.727 2.461,5.004 2.403,5.45 5.477,9.172 12.789,15.25 3.075,2.586 17,5.426 42.274,8.817 l 22.383,2.941 z M 52.285,355.812 c 2.219,-1.984 2.363,-2.492 2.496,-7.089 0.121,-2.707 -0.035,-6.809 -0.343,-9.118 -0.356,-2.539 -0.051,-7.871 0.55,-13.16 1.039,-8.109 1.016,-9.699 -0.258,-16.289 -0.839,-4.043 -1.394,-9.179 -1.351,-11.289 0.086,-3.621 0.211,-3.98 1.547,-3.808 0.82,0.101 2.597,-0.2 3.937,-0.633 1.828,-0.672 4.309,-0.582 9.649,0.254 l 7.261,1.156 1.153,2.797 c 1.054,2.402 1.078,3.992 0.105,10.976 -0.929,6.684 -0.867,7.375 -0.027,3.778 l 1.09,-4.399 -0.567,5.598 c -0.316,3.062 -0.789,9.125 -1.043,13.476 -0.449,7.051 -0.242,8.364 1.532,12.825 1.082,2.785 2.504,5.238 3.062,5.609 2.266,1.199 14.809,5.981 16.371,6.18 2.977,0.383 4.121,-2.043 4.711,-10.207 0.453,-5.313 0.36,-7.516 -0.348,-7.91 -1.207,-0.606 -0.542,-7.555 0.704,-7.848 0.464,-0.094 1.468,-3.215 2.172,-6.906 1.292,-6.563 1.257,-6.871 -0.391,-9.352 -0.879,-1.394 -1.543,-3.297 -1.422,-4.262 0.117,-0.894 -0.082,-3.488 -0.391,-5.796 l -0.515,-4.227 2.488,-1.723 c 1.344,-1.039 3.02,-1.73 3.762,-1.636 0.746,0.097 2.261,-0.539 3.363,-1.457 1.699,-1.446 2.617,-1.555 5.426,-1.043 l 3.32,0.652 -0.578,3.328 c -2.043,11.231 -2.281,16.039 -1.117,21.707 0.652,3.184 0.933,7.453 0.687,9.391 -0.504,3.941 -0.054,5.738 2.27,9.437 0.824,1.242 2.012,4.946 2.644,8.278 2.114,11.234 2.922,14.363 3.825,15.007 0.554,0.375 3.328,1.184 6.113,1.844 2.863,0.668 6.859,1.938 8.941,2.809 2.5,1.152 5.297,1.738 8.09,1.793 2.332,0.07 6.844,0.269 9.922,0.437 5.191,0.211 7.184,0.012 10.91,-1.324 0.789,-0.277 8.09,-0.02 16.184,0.562 12.519,0.848 15.32,0.829 17.636,-0.16 2.079,-0.867 4.825,-1.047 11.047,-0.629 4.575,0.286 10.481,0.211 13.246,-0.117 4.532,-0.554 5.586,-1.097 11.536,-5.629 4.699,-3.633 6.527,-5.515 6.699,-6.855 0.312,-2.453 -1.387,-5.695 -2.793,-5.348 -0.551,0.156 -2.149,-0.351 -3.485,-1.125 -2.742,-1.637 -7.769,-2.508 -9.914,-1.726 -5.929,2.039 -9.093,1.937 -31.558,-0.942 -21.797,-2.793 -22.328,-2.785 -23.934,-1.476 -1.527,1.316 -2.133,1.312 -11.246,-0.157 -11.621,-1.941 -15.328,-3.703 -15.984,-7.418 -1.192,-6.652 -1.188,-10.207 0.035,-21.543 0.785,-7.308 1.016,-12.648 0.629,-13.152 -0.52,-0.672 -0.043,-1.441 1.558,-2.75 1.868,-1.574 2.871,-1.75 6.071,-1.34 2.082,0.27 4.215,0.164 4.718,-0.226 1.09,-0.844 2.493,0.015 2.313,1.429 -0.231,1.786 1.922,3.274 4.777,3.411 1.953,0.097 3.621,-0.52 6.129,-2.391 3.18,-2.391 3.731,-2.547 7.051,-1.895 l 3.613,0.692 -0.054,3.394 c 0.007,2.875 0.129,3.118 0.703,1.602 0.429,-1.004 0.359,0.121 -0.082,2.41 -0.492,2.66 -0.5,4.473 -0.028,4.91 1.301,1.074 8.836,1.285 10.93,0.266 1.129,-0.535 1.66,-1.149 1.234,-1.352 -0.578,-0.226 -0.332,-0.953 0.563,-2.047 0.887,-1.019 1.266,-2.183 1.062,-2.964 -0.277,-0.79 -0.32,-1.629 -0.273,-2 0.113,-0.29 -0.723,-0.848 -1.961,-1.235 -1.152,-0.449 -2.145,-0.953 -2.117,-1.179 0.039,-0.297 1.484,-1.547 3.172,-2.918 l 3.117,-2.477 7.141,0.918 c 4.761,0.609 7.625,0.672 8.687,0.051 0.887,-0.414 2.981,-0.828 4.656,-0.914 2.438,-0.141 4.551,-1.309 11.18,-6.43 4.523,-3.43 8.004,-6.387 7.66,-6.656 -0.797,-0.86 -4.164,-7.039 -3.969,-7.391 0.102,-0.215 -0.453,-1.191 -1.222,-2.273 -1.352,-1.836 -1.715,-1.957 -8.914,-2.426 -4.129,-0.227 -10.09,-0.313 -13.219,-0.106 -3.125,0.204 -6.68,0.204 -7.793,0.059 -1.191,-0.152 -3.063,0.289 -4.207,0.973 -1.801,1.054 -3.242,1.097 -9.641,0.277 l -7.586,-0.973 -3.703,2.93 c -2.527,2.02 -4.297,2.852 -5.711,2.672 -1.117,-0.145 -2.449,0.215 -3.043,0.742 -1.289,1.195 -9.937,0.242 -16.406,-1.797 -2.176,-0.734 -7.184,-1.754 -11.043,-2.324 -6.23,-0.949 -7.293,-0.934 -9.109,0.27 -1.649,1.074 -3.344,1.312 -8.282,0.906 -5.246,-0.371 -6.476,-0.223 -8.312,1.129 -2.004,1.48 -2.758,1.461 -13.219,0.5 -9.265,-0.887 -11.308,-0.844 -12.719,0.109 -1.417,1.027 -3.601,0.973 -16.667,-0.32 -11.208,-1.059 -15.262,-1.278 -15.961,-0.535 -0.516,0.464 -1.391,0.804 -1.911,0.738 -0.519,-0.067 -2.543,0.961 -4.539,2.367 -1.984,1.336 -4.492,2.602 -5.57,2.766 -2,0.273 -9.805,5.699 -9.957,6.89 -0.047,0.371 -0.793,1.489 -1.746,2.422 -4.051,4.473 -5.945,9.824 -7.617,21.106 -0.856,6.089 -1.157,9 -0.563,6.734 l 1.047,-4.027 -0.351,4.492 c -0.165,2.473 -0.461,5.988 -0.551,7.867 -0.688,8.309 0.449,14.199 3.941,21.149 4.531,8.898 6.211,11.156 9.258,12.753 4.539,2.325 7.043,2.266 9.617,-0.129 z m 236.32,-25.601 c 10.18,-0.965 16.137,-2.02 17.704,-3.027 1.5,-1.094 3.007,-1.051 12.527,0.168 16.516,2.117 17.133,2.043 23.172,-2.625 4.019,-3.039 5.793,-5.082 7.871,-8.899 l 2.75,-4.941 -1.125,-6.571 c -1.051,-5.957 -1,-7.539 0.387,-16.586 l 1.507,-10.011 -8.953,-0.922 -8.965,-0.848 -4.777,3.625 c -6.683,4.965 -8.863,8.996 -9.191,16.289 l -0.27,5.637 -3.113,2.473 -3.117,2.472 -13.91,-1.781 c -13.391,-1.715 -14.071,-1.726 -16.29,-0.348 -6.402,3.946 -9.007,4.821 -13.816,4.582 -4.652,-0.293 -11.914,1.5 -13.891,3.364 -0.679,0.593 -0.582,1.59 0.231,3.508 0.637,1.519 1.226,4.011 1.25,5.601 0.309,5.258 1.867,6.063 14.961,7.742 6.324,0.809 13.066,1.293 15.058,1.098 z m -7.492,-41.867 c 0.825,-1.106 0.828,-3.524 -0.051,-4.922 -0.433,-0.738 -1.101,-0.82 -2.445,-0.391 -1.648,0.473 -2.222,0.246 -4.262,-2.133 -2.179,-2.472 -2.753,-2.695 -7.738,-3.336 -4.094,-0.523 -5.832,-1.124 -7.398,-2.457 -1.086,-0.972 -3.008,-1.898 -4.274,-2.062 -3.347,-0.43 -7.629,-2.414 -7.496,-3.453 0.18,-1.414 2.774,-3.957 3.817,-3.824 1.636,0.211 5.289,-2.344 5.48,-3.832 0.258,-2.008 -7.019,-4.227 -8.363,-2.586 -0.281,0.418 -1.211,0.601 -1.957,0.507 -0.742,-0.097 -2.364,0.754 -3.641,1.875 -2.23,2.059 -2.238,2.133 -1.027,3.879 0.715,0.922 1.453,2.832 1.746,4.079 0.367,1.863 0.57,2.039 0.734,0.773 0.332,-1.996 2.703,-2.828 2.45,-0.82 -0.098,0.746 0.523,1.808 1.433,2.379 1.188,0.757 1.234,0.988 0.266,0.863 -1.942,-0.172 -2.477,1.047 -1.387,3.152 0.473,1.043 0.645,2.047 0.387,2.317 -0.254,0.195 0.933,0.953 2.59,1.617 1.726,0.676 4.589,1.949 6.308,2.699 3.492,1.656 6.504,2.344 4.117,0.906 -1.691,-0.972 -0.554,-0.98 2.567,0.024 1.226,0.461 1.988,1.011 1.719,1.355 -0.731,0.965 3.906,2.543 10,3.399 3.781,0.558 5.902,0.531 6.425,-0.008 z M 55.461,254.293 c 1.371,-0.656 3.391,-1.078 4.504,-0.934 2.457,0.317 6.519,-1.886 15.051,-8.281 6.179,-4.574 10.242,-9.121 12.976,-14.519 0.813,-1.633 2.477,-3.993 3.774,-5.262 2.519,-2.551 2.586,-3.07 2.066,-13.195 -0.207,-4.864 0.711,-7.317 4.352,-11.54 2.148,-2.597 2.16,-2.671 1.199,-5.214 -0.5,-1.426 -1.02,-4.442 -1.024,-6.786 -0.035,-2.652 -0.707,-5.687 -1.836,-8.097 -2.668,-5.711 -3.207,-12.738 -2.14,-29.313 0.273,-4.5 -0.094,-8.707 -1.25,-14.449 -1.356,-6.523 -1.508,-8.887 -0.875,-12.058 0.773,-3.684 1.222,-4.231 5.847,-7.872 l 4.961,-3.902 11.696,1.953 1.129,5.364 c 0.523,3.015 0.929,6.921 0.691,8.781 -0.328,3.136 -0.262,3.219 0.516,1.277 0.683,-1.805 0.797,-1.484 0.422,2.02 -0.297,2.304 -1.032,5.086 -1.778,6.199 -0.746,1.113 -1.676,3.039 -2.051,4.199 -0.601,1.738 -0.543,1.895 0.129,0.774 0.664,-1.051 0.707,-0.215 0.141,3.042 -0.391,2.446 -0.441,6.973 -0.09,10.122 0.535,4.679 0.344,7.375 -1.238,16.171 -1.723,9.911 -1.754,10.739 -0.61,14.211 1.051,3.008 1.11,4.305 0.266,7.371 -0.867,3.215 -0.824,4.051 0.555,6.875 0.914,1.708 1.816,5.301 2.078,7.981 0.969,8.363 1.504,10.703 2.305,9.746 0.898,-1.094 0.335,3.293 -1.379,10.18 -1.114,4.547 -1.231,6.648 -0.61,13.004 0.11,0.921 1.117,3.093 2.332,4.836 1.149,1.66 2.414,4.168 2.856,5.433 1.07,3.461 4.664,5.512 10.765,6.293 5.727,0.735 8.036,-0.18 8.426,-3.23 0.117,-0.895 0.52,-1.672 0.817,-1.637 0.371,0.051 0.734,-0.434 0.812,-1.027 0.074,-0.598 -0.156,-1.157 -0.379,-1.184 -0.965,-0.125 -2.859,-7.777 -2.601,-10.391 0.527,-5.3 5.183,-12.718 7.039,-11.269 0.336,0.344 0.328,-0.188 -0.153,-1.156 -0.406,-0.957 -0.992,-1.715 -1.289,-1.754 -0.297,-0.035 -0.32,-1.024 -0.086,-2.278 0.227,-1.179 0.508,-2.203 0.582,-2.195 2.161,0.277 4.563,5.121 3.137,6.227 -0.59,0.453 -0.488,0.843 0.219,1.238 0.844,0.484 1.199,0.078 1.418,-1.633 0.41,-3.199 -0.485,-5.055 -2.938,-5.973 -6.441,-2.261 -9.418,-15.043 -7.355,-31.718 1,-7.809 0.996,-9.551 -0.43,-17.293 -1.805,-10.137 -1.617,-13.364 1.004,-15.524 1.688,-1.371 2.375,-1.433 10.484,-0.394 8.332,1.066 8.715,1.039 10.653,-0.528 1.781,-1.511 2.554,-1.64 6.172,-0.949 l 4.062,0.746 -1.246,12.696 -1.25,12.695 1.957,4.789 c 1.102,2.633 2.34,5.363 2.707,6.016 0.445,0.664 0.945,2.085 1.109,3.168 0.165,1.078 0.872,3.21 1.586,4.738 0.637,1.519 1.485,3.746 1.715,4.906 0.578,2.57 5.274,8.996 11.071,15.106 2.41,2.425 4.984,5.933 5.734,7.765 0.758,1.762 2.156,3.832 3.129,4.485 2.359,1.664 1.883,5.382 -0.953,7.441 -2.086,1.547 -2.809,3.043 -1.778,3.855 0.344,0.27 0.633,-0.222 0.746,-1.117 0.04,-0.902 0.594,-1.66 1.133,-1.742 0.547,-0.156 0.735,0.168 0.434,0.734 -0.383,0.633 0.117,1.454 1.305,2.211 1.543,0.953 1.996,0.934 2.961,-0.078 0.96,-1.008 1.015,-1.457 0.183,-2.621 -0.574,-0.828 -1.39,-1.539 -1.836,-1.598 -0.523,-0.066 -0.601,-1.21 -0.215,-3.05 0.707,-3.16 1.36,-3.532 2.618,-1.555 0.445,0.66 1.793,1.363 2.98,1.516 1.191,0.152 1.98,0.48 1.785,0.832 -0.262,0.269 0.371,0.652 1.328,0.851 3.821,0.867 4.407,1.02 5.696,2.168 0.742,0.699 1.949,1.309 2.695,1.403 0.742,0.093 1.16,0.375 0.965,0.73 -0.262,0.266 4.164,1.137 9.722,2 l 10.164,1.527 4.309,-3.531 c 2.695,-2.148 4.824,-4.598 5.5,-6.324 2.098,-5.176 2.52,-9.055 0.957,-9.254 -0.594,-0.078 -1.16,-0.375 -1.273,-0.691 -0.192,-0.86 -5.243,-3.926 -6.582,-4.098 -1.711,-0.219 -5.282,-4.231 -4.032,-4.524 0.473,-0.164 -0.91,-0.57 -3.218,-0.863 -9.801,-1.41 -21.969,-7.351 -22.403,-11.039 -0.472,-3.992 -0.238,-4.035 15.309,-2.047 l 14.355,1.84 4.293,-3.383 c 5.461,-4.289 6.727,-6.472 5.731,-9.926 -0.348,-1.406 -1.524,-3.445 -2.508,-4.632 -1.703,-2.032 -2.066,-2.153 -12.992,-3.629 -16.219,-2.078 -34.61,-5.492 -36.949,-6.699 -2.973,-1.59 -3.403,-3.536 -1.157,-5.137 1.66,-1.149 2.953,-1.211 12.727,-0.188 8.797,0.977 11.289,0.996 12.457,0.161 0.902,-0.563 3.453,-0.993 5.641,-0.942 3.777,0.031 4.578,-0.32 9.015,-3.684 2.684,-2.074 5.156,-4.253 5.477,-4.968 0.738,-1.645 -1.844,-8.629 -3.961,-10.414 -1.223,-1.063 -3.406,-1.723 -7.649,-2.266 -3.867,-0.492 -7.086,-1.359 -8.914,-2.426 -2.468,-1.375 -4.914,-1.765 -16.644,-2.886 l -13.668,-1.301 -1.239,-2.727 c -0.648,-1.445 -2.304,-3.851 -3.558,-5.297 l -2.309,-2.64 -9.668,-1.239 c -8.332,-1.066 -10.074,-1.062 -12.922,-0.066 -2.777,1.004 -4.281,0.965 -10.726,-0.09 -7.336,-1.164 -7.551,-1.269 -11.055,-4.59 -1.957,-1.84 -3.859,-4.125 -4.191,-5.074 -0.34,-0.875 -0.442,-4.215 -0.125,-7.273 0.316,-3.063 0.238,-8.364 -0.16,-11.743 -0.399,-3.378 -0.496,-10.874 -0.286,-16.671 0.918,-19.543 0.879,-22.797 -0.234,-25.891 l -1.129,-3.016 -8.09,-1.187 c -17.871,-2.742 -20.109,-2.953 -24.25,-2.504 -2.382,0.301 -4.797,0.824 -5.449,1.195 -0.652,0.367 -4.594,0.469 -8.781,0.082 -5.617,-0.414 -8.203,-0.293 -9.817,0.485 -1.851,0.894 -3.359,0.855 -9.792,-0.274 -6.879,-1.183 -7.895,-1.539 -10.399,-3.828 -4.676,-4.226 -4.598,-4.82 1.113,-8.703 5.379,-3.621 7.403,-4.043 16.039,-3.012 2.539,0.25 4.809,0.239 5.079,-0.105 0.804,-0.953 4.507,-0.934 16.738,-0.199 6.222,0.418 14.023,0.89 17.336,1.011 l 6.094,0.25 0.695,3.418 c 0.496,2.633 1.058,3.539 2.465,3.793 l 1.754,0.453 -1.688,-0.972 c -0.91,-0.571 -1.437,-1.168 -1.187,-1.364 0.25,-0.195 1.554,0.274 2.804,1.118 2.157,1.484 2.305,1.504 3.778,0.027 0.867,-0.871 1.605,-1.91 1.664,-2.356 0.066,-0.523 1.437,-1.781 3.011,-2.867 2.481,-1.648 3.571,-1.886 6.844,-1.468 2.379,0.308 5.211,0.062 7.098,-0.524 3.402,-1.156 14.183,-1.512 21.187,-0.691 l 4.473,0.5 0.07,4.164 c 0.012,2.273 -1.199,11.719 -2.605,20.914 -2.805,17.789 -2.84,22.172 -0.141,28.262 0.582,1.359 1.196,4.238 1.367,6.453 0.383,5.265 2.004,7.968 8.125,13.894 l 5.036,4.953 7.933,1.243 c 5.25,0.902 8.481,1.089 9.68,0.562 1.109,-0.387 6.16,-0.269 12.363,0.297 10.008,0.98 10.535,0.973 12.785,-0.629 1.836,-1.355 3.231,-1.629 7.129,-1.355 4.649,0.292 4.965,0.183 8.52,-2.766 3.125,-2.547 3.882,-3.738 4.758,-7.027 1.035,-3.95 1.054,-4.098 -1.145,-6.422 -1.195,-1.289 -4.184,-3.938 -6.672,-5.77 l -4.48,-3.371 -16.321,-2.469 c -11.715,-1.804 -16.8,-2.836 -17.98,-3.664 l -1.578,-1.261 2.781,-2.215 c 2.266,-1.75 3.375,-2.141 5.754,-1.836 2.008,0.258 3.562,-0.071 4.812,-0.969 1.586,-1.16 3.11,-1.266 8.879,-0.828 3.813,0.336 7.664,0.375 8.528,0.109 0.867,-0.269 3.816,-0.269 6.586,-0.066 4.343,0.332 5.433,0.094 7.523,-1.453 1.418,-1.032 3.172,-2.922 4.012,-4.176 1.328,-2.098 1.386,-2.543 0.609,-4.762 -0.441,-1.265 -2.48,-3.644 -4.476,-5.183 -3.582,-2.731 -3.657,-2.739 -12.399,-3.555 -6.289,-0.504 -9.394,-0.449 -10.766,0.207 -2.664,1.324 -16.808,-0.414 -19.656,-2.367 -3.89,-2.692 -3.906,-3.75 -0.371,-6.551 3.113,-2.473 3.578,-2.563 7.672,-2.039 2.379,0.305 8.453,0.703 13.496,0.894 7.227,0.247 9.516,0.086 10.922,-0.867 0.914,-0.64 2.488,-1.117 3.453,-0.996 2.457,0.317 9.75,-5.254 10.055,-7.633 0.152,-1.191 -0.754,-2.968 -2.524,-5.086 l -2.828,-3.312 -8.855,-1.133 c -8.18,-1.051 -9.02,-1.004 -11.461,0.344 -2.535,1.492 -3.297,1.547 -17.36,0.953 -5.562,-0.258 -5.925,-0.379 -8.347,-2.73 -1.344,-1.309 -2.606,-2.68 -2.789,-3.004 -0.492,-0.895 -6.149,-6.309 -8.821,-8.465 -3.156,-2.524 -12.8,-3.985 -16.609,-2.582 -1.273,0.515 -4.523,1.687 -7.133,2.562 -2.605,0.879 -5.371,1.809 -6.09,2.094 -0.875,0.344 -13.484,-0.969 -31.043,-3.219 l -29.683,-3.804 -1.949,1.64 c -1.95,1.641 -2.098,1.621 -14.52,0.031 -14.211,-1.82 -15.746,-1.64 -21.562,2.457 -2.004,1.481 -4.036,2.582 -4.407,2.536 -1.488,-0.192 -5.422,1.574 -7.539,3.343 -1.183,0.981 -3.508,4.391 -5.043,7.52 -2.324,4.543 -3.855,6.461 -7.48,9.398 -4.133,3.328 -4.703,4.239 -5.504,7.539 l -0.848,3.672 3.844,4.801 c 3.395,4.215 4.637,5.133 10.277,7.746 6.426,2.942 6.5,2.949 27.266,5.535 16.219,2.075 21.539,2.453 23.949,1.934 2.094,-0.414 6.309,-0.254 13.012,0.531 9.672,1.238 9.82,1.258 9.609,2.895 -0.113,0.894 -1.39,2.617 -2.902,3.785 -2.109,1.699 -3.289,2.074 -5.449,1.797 -2.157,-0.274 -3.731,0.203 -7.032,2.351 -2.375,1.438 -5.218,2.961 -6.41,3.414 -1.105,0.387 -4.062,2.203 -6.496,4.082 -4.094,3.032 -4.457,3.512 -4.613,6.516 -0.231,2.391 0.082,3.488 1.316,4.48 2.383,2.043 1.575,4.813 -3.695,12.305 -4.437,6.313 -4.766,7.102 -5.293,11.797 -0.277,2.762 -0.344,6.234 -0.144,7.621 0.75,4.781 0.179,6.297 -3.59,9.141 -4.438,3.363 -9.922,5.461 -14.399,5.566 -2.578,0.047 -4.168,0.676 -6.613,2.633 -1.762,1.359 -3.719,2.473 -4.238,2.402 -0.598,-0.074 -2.946,1.137 -5.118,2.75 -2.171,1.61 -4.445,2.832 -5.039,2.758 -1.339,-0.172 -4.839,2.934 -6.753,6.09 l -1.618,2.59 2.317,2.566 c 2.113,2.387 2.754,2.696 7.515,3.305 5.43,0.695 6.754,0.414 20.137,-4.301 6.574,-2.332 10.977,-3.055 15.067,-2.531 l 3.792,0.488 0.465,3.461 c 0.809,6.078 0.621,6.356 -8.609,13.488 -7.133,5.516 -8.93,6.571 -10.863,6.325 -1.489,-0.192 -2.989,0.296 -4.258,1.343 -1.102,0.918 -2.766,1.536 -3.66,1.422 -2.453,-0.316 -12.485,6.567 -12.77,8.797 -0.508,3.945 0.449,4.746 6.848,5.567 3.199,0.41 6.062,0.472 6.332,0.128 0.262,-0.265 3.676,-0.359 7.5,-0.097 5.914,0.457 7.683,0.23 10.414,-1.008 2.094,-1.02 4.34,-1.41 6.199,-1.172 2.453,0.313 2.938,0.68 3.11,2.289 0.152,1.152 -0.356,2.75 -1.196,4.004 -0.746,1.113 -1.457,2.535 -1.543,3.207 -0.183,1.41 -10.086,9.672 -11.426,9.5 -1.562,-0.203 -4.687,2.953 -4.433,4.496 0.238,1.09 -1.59,2.973 -7.25,7.617 l -7.594,6.133 -0.066,3.473 c 0.011,2.269 -0.239,3.066 -0.59,2.265 -0.305,-0.566 -0.379,-1.785 -0.039,-2.652 0.476,-1.375 0.402,-1.383 -0.485,-0.363 -1.074,1.301 -0.3,4.726 0.899,4.199 0.402,-0.176 1.164,0.375 1.801,1.289 0.64,0.914 0.925,1.629 0.629,1.594 -0.297,-0.039 -0.344,0.332 -0.168,0.734 0.164,0.473 2.804,1.114 5.707,1.485 4.089,0.527 5.921,0.382 7.777,-0.516 z m 91.512,8.699 c 0.047,-0.371 1.359,-0.582 2.922,-0.383 1.488,0.192 3.32,0.051 3.964,-0.246 1.926,-0.886 -0.867,-3.285 -3.683,-3.117 -1.219,0.07 -2.801,0.02 -3.621,-0.086 -1.039,-0.133 -1.387,0.199 -1.258,0.973 0.223,0.633 -0.086,1.273 -0.57,1.515 -0.559,0.231 -0.536,0.61 0.078,1.141 1.3,1.074 2.054,1.098 2.168,0.203 z m 161.82,11.735 c 1.215,-1.813 1.551,-4.415 0.508,-4.551 -0.52,-0.067 -0.473,-1.043 0.062,-2.864 0.942,-3.207 -0.168,-5.164 -2.726,-4.66 -1.313,0.211 -1.614,0.778 -1.629,2.664 0.051,1.368 0.066,2.43 0.14,2.438 0.075,0.012 0.129,1.379 0.075,2.961 -0.133,1.644 -0.055,3.394 0.089,4.019 0.415,1.489 2.379,1.512 3.481,-0.007 z"
       style="fill:#ff0140;fill-opacity:1;fill-rule:nonzero;stroke:none"
       transform="scale(1.3333333)" /><path
       id="path2"
       d="m 229.078,485.605 c 0.36,-2.828 0.652,-3.925 0.602,-2.343 -0.043,1.508 -0.348,3.886 -0.668,5.207 -0.309,1.246 -0.305,0.039 0.066,-2.864 z"
       style="fill:#ff0140;fill-opacity:1;fill-rule:nonzero;stroke:none"
       transform="scale(1.3333333)" /><path
       id="path3"
       d="m 145.016,425.84 c -2.157,-1.488 -3.227,-4.344 -2.778,-7.844 0.192,-1.484 0.2,-4.508 0.02,-6.648 -0.34,-3.825 -0.238,-4.039 2.039,-5.864 2.023,-1.632 2.879,-1.824 6.226,-1.398 3.719,0.476 8.5,0.336 15.11,-0.481 1.683,-0.164 10.176,0.243 18.777,0.969 8.68,0.731 17.82,1.375 20.453,1.485 3.313,0.121 5.004,0.488 5.735,1.265 2.004,2.071 3.191,6.985 2.695,10.852 -0.449,3.5 -0.824,4.054 -4.375,7.004 l -3.973,3.269 -5.582,-0.715 c -3.941,-0.504 -6.527,-0.382 -8.808,0.309 -2.45,0.82 -6.086,0.883 -14.496,0.41 -6.223,-0.418 -12.27,-0.437 -13.434,-0.207 -3.043,0.746 -15.457,-0.922 -17.609,-2.406 z"
       style="fill:#ff0140;fill-opacity:1;fill-rule:nonzero;stroke:none"
       transform="scale(1.3333333)" /><path
       id="path4"
       d="m 214.512,415.156 c 0.086,-0.668 -0.063,-1.894 -0.188,-2.668 -0.238,-1.09 -0.156,-1.156 0.438,-0.472 0.453,0.586 0.609,1.742 0.261,2.679 -0.273,0.946 -0.523,1.141 -0.511,0.461 z"
       style="fill:#ff0140;fill-opacity:1;fill-rule:nonzero;stroke:none"
       transform="scale(1.3333333)" /><path
       id="path5"
       d="m 128.02,356.062 c -0.055,-0.761 -0.34,-2.082 -0.618,-2.874 -0.246,-1.016 -0.132,-1.305 0.348,-0.938 0.957,0.801 1.965,5.316 1.148,5.211 -0.375,-0.047 -0.742,-0.699 -0.878,-1.399 z"
       style="fill:#ff0140;fill-opacity:1;fill-rule:nonzero;stroke:none"
       transform="scale(1.3333333)" /><path
       id="path6"
       d="m 120.211,326.105 c 0.238,-1.859 0.484,-2.585 0.508,-1.601 0.035,0.914 -0.157,2.402 -0.43,3.348 -0.262,0.875 -0.316,0.113 -0.078,-1.747 z"
       style="fill:#ff0140;fill-opacity:1;fill-rule:nonzero;stroke:none"
       transform="scale(1.3333333)" /><path
       id="path7"
       d="m 147.68,318.281 c 0.238,-1.859 0.48,-2.586 0.504,-1.597 0.035,0.91 -0.157,2.398 -0.426,3.347 -0.266,0.871 -0.317,0.11 -0.078,-1.75 z"
       style="fill:#ff0140;fill-opacity:1;fill-rule:nonzero;stroke:none"
       transform="scale(1.3333333)" /><path
       id="path8"
       d="m 165.652,296.008 c -0.375,-1.785 0.231,-1.785 1.52,-0.031 0.898,1.25 0.941,1.48 -0.024,1.359 -0.671,-0.086 -1.273,-0.695 -1.496,-1.328 z"
       style="fill:#ff0140;fill-opacity:1;fill-rule:nonzero;stroke:none"
       transform="scale(1.3333333)" /><path
       id="path9"
       d="m 259.719,321.973 c -0.723,-4.403 0.051,-4.532 0.937,-0.258 0.422,2.019 0.457,3.535 0.156,3.496 -0.296,-0.035 -0.792,-1.461 -1.093,-3.238 z"
       style="fill:#ff0140;fill-opacity:1;fill-rule:nonzero;stroke:none"
       transform="scale(1.3333333)" /><path
       id="path10"
       d="m 114.852,165.496 c 0.304,-2.379 0.753,-4.137 0.941,-3.812 0.195,0.254 0.199,1.992 -0.051,3.925 -0.246,1.934 -0.687,3.618 -0.949,3.887 -0.254,0.195 -0.246,-1.621 0.059,-4 z"
       style="fill:#ff0140;fill-opacity:1;fill-rule:nonzero;stroke:none"
       transform="scale(1.3333333)" /><path
       id="path11"
       d="m 170.789,167.371 c 0.316,-2.457 0.578,-3.332 0.559,-1.973 -0.024,1.36 -0.282,3.368 -0.575,4.465 -0.293,1.098 -0.296,-0.039 0.016,-2.492 z"
       style="fill:#ff0140;fill-opacity:1;fill-rule:nonzero;stroke:none"
       transform="scale(1.3333333)" /><path
       id="path12"
       d="m 169.148,74.535 c 0.555,-4.316 0.848,-6.019 0.719,-3.84 -0.117,2.102 -0.574,5.672 -1,7.809 -0.414,2.066 -0.269,0.344 0.281,-3.969 z"
       style="fill:#ff0140;fill-opacity:1;fill-rule:nonzero;stroke:none"
       transform="scale(1.3333333)" /><path
       id="path13"
       d="m 172.324,55.66 c 0.629,-4.91 0.949,-6.836 0.766,-4.215 -0.176,2.551 -0.692,6.567 -1.145,8.93 -0.445,2.285 -0.25,0.195 0.379,-4.715 z"
       style="fill:#ff0140;fill-opacity:1;fill-rule:nonzero;stroke:none"
       transform="scale(1.3333333)" /><path
       id="path14"
       d="m 243.812,40.621 c 0.172,-1.34 0.528,-2.351 0.872,-2.082 0.687,0.543 0.211,4.867 -0.536,4.77 -0.371,-0.047 -0.441,-1.266 -0.336,-2.688 z"
       style="fill:#ff0140;fill-opacity:1;fill-rule:nonzero;stroke:none"
       transform="scale(1.3333333)" /><path
       id="path15"
       d="m 473.637,491.301 c -1.168,-1.512 -3.09,-3.649 -4.313,-4.711 -1.215,-1.137 -3.187,-4.039 -4.465,-6.469 -2.031,-4.191 -2.644,-4.726 -7.671,-7.41 -3.965,-2.098 -6.219,-3.973 -8.563,-6.922 -3.383,-4.289 -10.137,-17.098 -9.906,-18.887 0.074,-0.593 1.383,-1.937 2.894,-3.105 2.758,-2.067 2.758,-2.067 10.496,-1.074 l 7.809,1 1.305,3.418 c 0.672,1.824 3.625,6.511 6.609,10.375 4.727,6.199 6.145,7.515 13.684,12.414 8.726,5.652 10.136,7.043 11.027,10.711 0.734,3.121 -0.77,5.421 -6.738,10.101 -6.305,4.942 -8.891,5.063 -12.168,0.559 z"
       style="fill:#ff0140;fill-opacity:1;fill-rule:nonzero;stroke:none"
       transform="scale(1.3333333)" /><path
       id="path16"
       d="m 490.941,451.25 c -2.25,-1.348 -7.433,-9.875 -7.824,-12.723 -0.16,-1.683 0.391,-2.445 3.856,-4.722 5.39,-3.696 7.914,-4.508 12.3,-3.946 l 3.575,0.457 -0.41,3.2 c -0.895,6.39 -3.512,16.187 -4.922,17.746 -1.512,1.769 -3.633,1.8 -6.575,-0.012 z"
       style="fill:#ff0140;fill-opacity:1;fill-rule:nonzero;stroke:none"
       transform="scale(1.3333333)" /><path
       id="path17"
       d="m 496.797,406.707 c -0.871,-1.473 -1.902,-4.023 -2.363,-5.746 l -0.875,-3.211 -20.875,-2.902 -20.887,-2.828 -0.828,-2.372 c -0.442,-1.269 -0.594,-4.234 -0.27,-6.765 0.324,-2.531 0.16,-6.559 -0.289,-8.961 -0.512,-2.484 -0.957,-6.094 -0.941,-7.984 -0.094,-3.415 0,-3.551 3.535,-5.747 l 3.699,-2.324 9.617,1.082 9.625,1.004 -0.113,2.633 c -0.09,2.484 -0.621,3.098 -5.547,6.699 -2.926,2.195 -5.871,3.938 -6.465,3.86 -3.125,-0.399 -5.468,5.5 -3.234,8.132 2.566,2.973 6.172,4.344 14.355,5.391 5.95,0.762 9.207,0.727 12.614,0.105 2.793,-0.55 6.59,-0.668 9.715,-0.269 l 5.058,0.648 0.461,3.461 c 0.285,1.926 0.762,3.5 1.059,3.539 1.191,0.153 -0.594,9.375 -2.493,12.383 -0.96,1.617 -2.109,2.906 -2.398,2.793 -0.297,-0.039 -1.281,-1.223 -2.16,-2.621 z"
       style="fill:#ff0140;fill-opacity:1;fill-rule:nonzero;stroke:none"
       transform="scale(1.3333333)" /><path
       id="path18"
       d="m 389.281,368.891 c -2.758,-1.489 -2.445,-3.34 1.004,-6.071 2.945,-2.347 3.34,-2.449 7.801,-1.875 2.828,0.364 4.648,0.899 4.582,1.418 -0.172,1.34 -2.066,3.742 -4.77,5.969 -2.695,2.148 -5.441,2.324 -8.617,0.559 z"
       style="fill:#ff0140;fill-opacity:1;fill-rule:nonzero;stroke:none"
       transform="scale(1.3333333)" /><path
       id="path19"
       d="m 409.246,270.883 c -3.465,-1.278 -3.797,-2.227 -0.379,-1.184 3.125,1.004 5.938,2.653 3.863,2.309 -0.585,-0.149 -2.183,-0.656 -3.484,-1.125 z"
       style="fill:#ff0140;fill-opacity:1;fill-rule:nonzero;stroke:none"
       transform="scale(1.3333333)" /><path
       id="path20"
       d="m 408.367,205.742 c -0.551,-0.449 -3.402,-1.191 -6.379,-1.574 -4.539,-0.578 -5.55,-0.938 -6.707,-2.52 -1.472,-2.082 -1.375,-3.429 0.727,-10.418 1.73,-5.828 1.508,-8.199 -1.36,-17.113 -2.386,-7.336 -2.011,-17.344 0.719,-22.137 1.738,-2.953 1.778,-3.25 0.981,-7.058 -0.403,-2.168 -0.664,-5.453 -0.426,-7.313 0.266,-2.082 -0.043,-4.39 -0.875,-6.16 -0.996,-2.246 -1.106,-3.773 -0.488,-7.398 0.586,-3.403 0.507,-5.153 -0.34,-6.774 -1.434,-2.98 -2.098,-8.433 -1.61,-12.832 0.278,-2.156 -0.14,-5.992 -1.16,-9.828 l -1.543,-6.246 3.364,-2.668 c 3.695,-2.855 6.867,-3.433 14.316,-2.555 2.309,0.297 4.504,0.278 4.781,-0.14 0.274,-0.344 1.66,-0.547 3.074,-0.363 1.411,0.179 2.715,0.043 2.985,-0.297 0.262,-0.27 2.41,-0.524 4.82,-0.442 10.188,0.168 12.094,0.035 15.399,-0.976 2.683,-0.868 5.417,-0.969 12.515,-0.289 5.828,0.519 9.988,0.523 11.645,-0.02 1.492,-0.414 6.199,-0.566 10.625,-0.301 l 7.961,0.414 3.742,-3.226 c 7.238,-6.332 8.16,-9.996 3.879,-14.93 l -2.383,-2.648 -25.344,-2.868 -25.414,-2.878 -2.164,1.539 c -1.582,1.156 -3.445,1.523 -6.691,1.484 -2.493,-0.016 -5.731,0.477 -7.168,1.051 -2.317,0.988 -4.059,0.992 -13.207,-0.18 -12.871,-1.648 -14.422,-2.531 -15.657,-8.812 l -0.769,-4.032 3.195,-2.539 3.199,-2.539 9.004,1.153 c 4.985,0.64 9.336,0.894 9.754,0.57 1.156,-0.758 7.586,-1.371 10.563,-0.992 1.414,0.183 3.043,-0.137 3.64,-0.668 0.598,-0.528 1.926,-0.887 2.969,-0.754 1.043,0.137 2.606,-0.27 3.52,-0.91 1.332,-0.961 3.668,-0.891 16.648,0.472 12.164,1.254 15.477,1.375 17.016,0.59 1.285,-0.59 4.57,-0.851 8.773,-0.613 3.75,0.25 9.535,0.539 12.91,0.746 l 6.082,0.324 1.024,2.625 c 0.738,1.91 0.777,4.563 0.281,9.035 -0.586,5.746 -0.441,6.977 1.504,13.047 l 2.242,6.715 -1.648,11.66 c -0.817,6.399 -1.317,11.477 -1,11.364 0.882,-0.415 0.797,6.757 -0.184,7.918 -0.457,0.621 -1.016,3.8 -1.211,7.101 -0.371,5.246 -0.269,5.637 0.512,3.09 0.648,-2.109 0.672,-1.121 0.047,3.183 -0.516,3.411 -1.164,6.126 -1.387,6.098 -0.82,-0.105 -2.172,-2.547 -3.313,-6.019 -0.609,-1.743 -1.867,-3.719 -2.843,-4.371 -2.719,-1.786 -45.133,-7.145 -48.735,-6.168 -1.492,0.414 -6.011,3.238 -10.105,6.265 l -7.442,5.551 -5.207,-0.668 c -6.097,-0.781 -7.804,0.137 -8.367,4.523 -0.265,2.082 0.156,3.5 2.149,6.25 3.195,4.567 3.652,7.5 2.39,15.579 -0.55,3.71 -1.035,10.453 -1.086,14.984 -0.109,7.926 -0.187,8.519 -2.039,11.762 -2.504,4.214 -2.609,5.035 -0.965,8.117 1.778,3.254 1.524,10.555 -0.445,11.738 -1.805,1.129 -1.906,3.086 -0.676,8.836 0.907,4.125 0.934,5.109 -0.058,6.344 -1.071,1.301 -0.996,1.308 0.512,0.746 1.984,-0.727 2.019,-1.024 0.781,-6.098 -1.231,-5.148 -0.531,-5.89 0.867,-0.875 1.824,6.434 1.793,7.262 -0.629,7.86 -2.496,0.589 -2.793,0.55 -4.09,-0.524 z M 426.121,94.297 c 0.059,-0.449 0.359,-1.617 0.567,-2.652 l 0.46,-1.829 0.43,1.946 0.36,1.933 0.089,-1.879 c 0.071,-1.73 -0.211,-1.914 -3.257,-2.308 -2.977,-0.379 -3.536,-0.149 -5.153,1.836 -0.988,1.234 -3.117,3.683 -4.703,5.449 l -2.98,3.172 3.433,-2.586 c 1.848,-1.426 3.496,-3.106 3.649,-3.691 0.148,-0.586 0.343,0.269 0.429,1.945 0.227,2.976 0.047,3.183 -4.343,6.777 -2.528,2.02 -4.59,3.949 -4.629,4.246 -0.106,0.821 15.449,-11.402 15.648,-12.359 z"
       style="fill:#ff0140;fill-opacity:1;fill-rule:nonzero;stroke:none"
       transform="scale(1.3333333)" /><path
       id="path21"
       d="m 359.652,192.32 c 0.258,-2.011 0.512,-2.808 0.508,-1.601 0.004,1.136 -0.207,2.773 -0.476,3.722 -0.266,0.871 -0.301,-0.039 -0.032,-2.121 z"
       style="fill:#ff0140;fill-opacity:1;fill-rule:nonzero;stroke:none"
       transform="scale(1.3333333)" /><path
       id="path22"
       d="m 494.324,205.262 c -3.308,-7.836 -3.543,-12.477 -0.988,-18.274 1.164,-2.574 1.09,-3.187 -0.449,-7.695 -1.383,-3.957 -1.629,-6.184 -1.325,-11.512 0.258,-4.351 -0.003,-7.636 -0.722,-9.695 -1.836,-5.148 -2.629,-16.668 -1.375,-21.727 0.535,-2.425 1.422,-6.394 1.953,-8.746 0.461,-2.437 1.484,-5.105 2.285,-6.058 l 1.422,-1.633 2.148,2.695 c 1.243,1.52 3.211,5.629 4.493,9.195 1.285,3.567 2.98,8.02 3.711,10 1.328,3.196 1.355,4.184 0.39,8.747 -0.668,2.863 -1.984,7.23 -2.996,9.824 -1.687,4.32 -1.773,4.992 -1.148,10.137 0.39,3.453 0.304,6.464 -0.231,8.289 -1.445,4.804 -1.465,7.296 -0.035,12.093 1.859,6.133 1.004,15.778 -1.449,17.203 -2.684,1.473 -4.168,0.676 -5.684,-2.843 z"
       style="fill:#ff0140;fill-opacity:1;fill-rule:nonzero;stroke:none"
       transform="scale(1.3333333)" /><path
       id="path23"
       d="m 412.652,175.82 c -0.285,-0.718 -0.093,-2.207 0.43,-3.347 0.758,-1.793 0.844,-1.86 0.856,-0.192 0.109,0.918 -0.083,2.407 -0.43,3.348 -0.403,1.383 -0.488,1.449 -0.856,0.191 z"
       style="fill:#ff0140;fill-opacity:1;fill-rule:nonzero;stroke:none"
       transform="scale(1.3333333)" /><path
       id="path24"
       d="m 416.109,164.77 c 0.317,-2.454 0.579,-3.329 0.555,-1.969 -0.023,1.355 -0.281,3.363 -0.57,4.461 -0.293,1.097 -0.297,-0.039 0.015,-2.492 z"
       style="fill:#ff0140;fill-opacity:1;fill-rule:nonzero;stroke:none"
       transform="scale(1.3333333)" /><path
       id="path25"
       d="m 416.262,145.887 c 0.207,-1.637 0.433,-2.215 0.457,-1.227 0.035,0.91 -0.137,2.25 -0.379,2.977 -0.309,0.64 -0.363,-0.125 -0.078,-1.75 z"
       style="fill:#ff0140;fill-opacity:1;fill-rule:nonzero;stroke:none"
       transform="scale(1.3333333)" /><path
       id="path26"
       d="m 499.656,55.625 c 0.239,-1.859 0.481,-2.586 0.508,-1.598 0.031,0.911 -0.156,2.399 -0.43,3.348 -0.265,0.875 -0.316,0.109 -0.078,-1.75 z"
       style="fill:#ff0140;fill-opacity:1;fill-rule:nonzero;stroke:none"
       transform="scale(1.3333333)" /><path
       id="path27"
       d="m 476,18.344 -1.895,-1.153 2.872,-1.75 2.871,-1.746 1.687,2.18 c 0.906,1.176 1.488,2.535 1.199,3.027 -0.535,1.219 -4.347,0.879 -6.734,-0.558 z"
       style="fill:#ff0140;fill-opacity:1;fill-rule:nonzero;stroke:none"
       transform="scale(1.3333333)" /></g></svg>
